<?xml version="1.0" standalone="no"?>
<!DOCTYPE svg PUBLIC "-//W3C//DTD SVG 20010904//EN"
 "http://www.w3.org/TR/2001/REC-SVG-20010904/DTD/svg10.dtd">
<svg version="1.0" xmlns="http://www.w3.org/2000/svg"
 width="986.000000pt" height="1280.000000pt" viewBox="0 0 986.000000 1280.000000"
 preserveAspectRatio="xMidYMid meet">
<g transform="translate(0.000000,1280.000000) scale(0.100000,-0.100000)"
fill="#000000" stroke="none">
<path d="M4790 12794 c-1729 -44 -3199 -351 -3903 -817 -203 -135 -348 -296
-396 -440 -46 -137 -37 -249 28 -382 128 -258 480 -497 1021 -691 l145 -52
1202 -1633 c706 -959 1219 -1665 1242 -1709 167 -320 208 -858 120 -1580 -79
-659 -274 -1505 -586 -2552 -3 -10 -15 -18 -27 -18 -85 0 -449 -24 -631 -41
-1536 -141 -2686 -587 -2945 -1141 -34 -72 -60 -180 -60 -248 0 -130 59 -275
166 -409 330 -411 1195 -751 2349 -921 348 -51 759 -85 1229 -100 176 -6 329
-13 340 -15 47 -11 566 -35 873 -41 1005 -19 1793 97 2293 337 292 141 496
324 590 533 35 78 36 83 10 91 -17 5 -12 15 48 84 134 157 186 277 187 436 0
111 -13 169 -58 260 -42 86 -81 140 -156 219 -447 467 -1573 823 -2939 930
-95 7 -175 15 -178 18 -6 6 -28 350 -45 693 -19 374 -16 1213 5 1517 68 1007
243 1589 573 1909 37 37 678 590 1423 1231 745 640 1648 1415 2005 1723 358
307 650 564 650 570 0 16 -53 77 -64 73 -21 -7 -4053 -3482 -4118 -3549 -216
-218 -365 -550 -463 -1029 -108 -528 -155 -1269 -131 -2080 11 -368 32 -801
47 -983 l7 -78 -59 5 c-33 3 -165 8 -294 11 -182 4 -500 28 -506 38 0 1 23 83
53 182 270 903 461 1784 539 2485 25 225 30 721 10 895 -38 326 -110 542 -244
730 -27 39 -550 750 -1161 1580 -611 831 -1111 1513 -1111 1516 0 3 51 -9 112
-27 563 -161 1361 -282 2248 -341 380 -25 1458 -25 1850 0 923 59 1687 178
2330 362 755 216 1236 496 1391 810 65 133 74 245 28 382 -73 220 -351 455
-750 634 -735 329 -1867 547 -3164 609 -223 11 -916 19 -1125 14z m1085 -125
c1206 -49 2361 -260 3070 -561 289 -123 482 -242 625 -387 103 -104 141 -163
166 -261 83 -326 -329 -672 -1118 -935 -1514 -505 -4111 -604 -6018 -230 -330
65 -813 189 -848 218 -7 5 -187 247 -399 536 -212 289 -387 527 -389 529 -4 6
-83 -53 -84 -61 0 -5 152 -215 337 -468 186 -252 339 -463 341 -469 5 -14
-223 80 -373 155 -449 223 -663 482 -601 725 25 97 63 157 166 261 534 539
2141 918 4085 963 196 5 769 -4 1040 -15z m-2255 -9864 c0 -3 -30 -99 -66
-213 -36 -114 -68 -217 -71 -229 -28 -125 230 -248 630 -299 163 -21 412 -15
497 11 73 22 133 58 156 92 31 48 33 108 13 353 -25 311 -28 280 29 275 26 -3
108 -9 182 -15 677 -54 1358 -189 1880 -372 584 -204 972 -475 1081 -756 30
-76 32 -221 6 -302 -61 -183 -271 -387 -565 -548 -555 -304 -1411 -515 -2442
-601 -442 -37 -1018 -42 -1295 -11 -897 102 -1761 341 -2403 667 -590 299
-949 643 -955 916 -1 47 -5 57 -19 57 -31 0 -20 22 41 81 202 197 542 380 976
525 537 179 1243 307 1950 354 308 20 375 23 375 15z m589 -115 c245 -28 446
-52 448 -54 7 -7 33 -348 28 -373 -2 -14 -12 -34 -21 -44 -63 -70 -404 -81
-694 -23 -158 32 -335 97 -367 136 -9 10 3 59 48 203 32 104 61 195 63 201 2
6 15 10 28 8 13 -3 223 -27 467 -54z m-3972 -1122 c168 -377 818 -808 1658
-1097 186 -64 492 -155 627 -187 43 -10 76 -19 74 -22 -7 -6 -269 36 -471 75
-828 160 -1464 415 -1780 714 -96 91 -142 150 -184 235 -66 136 -67 265 -1
409 l22 50 18 -65 c9 -36 26 -86 37 -112z m7440 -760 c-109 -152 -253 -265
-477 -372 -406 -194 -1015 -305 -1761 -320 -245 -5 -243 -4 26 30 575 71 1175
216 1605 386 178 70 407 187 535 272 61 40 112 72 114 70 2 -2 -17 -31 -42
-66z"/>
</g>
</svg>
